{
	"accessors" : 
	[
		{
			"bufferView" : 2,
			"byteOffset" : 0,
			"componentType" : 5126,
			"count" : 19243,
			"max" : 
			[
				1,
				0.6120656132698059,
				0.2508402466773987,
				1
			],
			"min" : 
			[
				0.006584956776350737,
				0.006584956776350737,
				0.006584956776350737,
				1
			],
			"name" : "accessor_color_m0-PolyPaper23_-105548",
			"type" : "VEC4"
		},
		{
			"bufferView" : 2,
			"byteOffset" : 307888,
			"componentType" : 5126,
			"count" : 2145,
			"max" : 
			[
				1,
				0.6120656132698059,
				0.2508402466773987,
				1
			],
			"min" : 
			[
				0.006584956776350737,
				0.006584956776350737,
				0.006584956776350737,
				1
			],
			"name" : "accessor_color_m1-PolyPaper20_-105554",
			"type" : "VEC4"
		},
		{
			"bufferView" : 0,
			"byteOffset" : 0,
			"componentType" : 5123,
			"count" : 22497,
			"max" : 
			[
				19242
			],
			"min" : 
			[
				0
			],
			"name" : "accessor_indices_0_m0-PolyPaper23_-105548",
			"type" : "SCALAR"
		},
		{
			"bufferView" : 0,
			"byteOffset" : 44994,
			"componentType" : 5123,
			"count" : 2367,
			"max" : 
			[
				2144
			],
			"min" : 
			[
				0
			],
			"name" : "accessor_indices_0_m1-PolyPaper20_-105554",
			"type" : "SCALAR"
		},
		{
			"bufferView" : 1,
			"byteOffset" : 230916,
			"componentType" : 5126,
			"count" : 19243,
			"max" : 
			[
				0.9999202,
				0.9998763000000001,
				0.999725
			],
			"min" : 
			[
				-0.9996589,
				-0.9999362000000001,
				-0.9983611999999999
			],
			"name" : "accessor_normal_m0-PolyPaper23_-105548",
			"type" : "VEC3"
		},
		{
			"bufferView" : 1,
			"byteOffset" : 487572,
			"componentType" : 5126,
			"count" : 2145,
			"max" : 
			[
				0.9992016,
				0.9994779,
				0.9965923
			],
			"min" : 
			[
				-0.986806,
				-0.9991449,
				-0.9981195
			],
			"name" : "accessor_normal_m1-PolyPaper20_-105554",
			"type" : "VEC3"
		},
		{
			"bufferView" : 1,
			"byteOffset" : 0,
			"componentType" : 5126,
			"count" : 19243,
			"max" : 
			[
				-0.4555439,
				1.645241,
				1.028137
			],
			"min" : 
			[
				-2.909328,
				1.064124,
				-1.435157
			],
			"name" : "accessor_position_m0-PolyPaper23_-105548",
			"type" : "VEC3"
		},
		{
			"bufferView" : 1,
			"byteOffset" : 461832,
			"componentType" : 5126,
			"count" : 2145,
			"max" : 
			[
				-0.1311111,
				1.568756,
				-0.1648432
			],
			"min" : 
			[
				-2.60623,
				0.9935322,
				-0.9974749000000001
			],
			"name" : "accessor_position_m1-PolyPaper20_-105554",
			"type" : "VEC3"
		}
	],
	"asset" : 
	{
		"copyright" : "Unknown",
		"generator" : "glTF 1-to-2 Upgrader for Google Blocks",
		"version" : "2.0"
	},
	"bufferViews" : 
	[
		{
			"buffer" : 0,
			"byteLength" : 49728,
			"byteOffset" : 0,
			"name" : "ushortBufferView",
			"target" : 34963
		},
		{
			"buffer" : 0,
			"byteLength" : 513312,
			"byteOffset" : 49728,
			"byteStride" : 12,
			"name" : "vec3BufferView",
			"target" : 34962
		},
		{
			"buffer" : 0,
			"byteLength" : 342208,
			"byteOffset" : 563040,
			"byteStride" : 16,
			"name" : "vec4BufferView",
			"target" : 34962
		}
	],
	"buffers" : 
	[
		{
			"byteLength" : 905248,
			"name" : "model",
			"uri" : "model.bin"
		}
	],
	"materials" : 
	[
		{
			"alphaMode" : "OPAQUE",
			"doubleSided" : false,
			"name" : "BlocksPaper",
			"pbrMetallicRoughness" : 
			{
				"baseColorFactor" : 
				[
					1,
					1,
					1,
					1
				],
				"metallicFactor" : 0,
				"roughnessFactor" : 0.6
			}
		},
		{
			"alphaMode" : "BLEND",
			"doubleSided" : false,
			"name" : "BlocksGlass",
			"pbrMetallicRoughness" : 
			{
				"baseColorFactor" : 
				[
					0.2,
					0.2,
					1,
					0.3
				],
				"metallicFactor" : 1,
				"roughnessFactor" : 0.4
			}
		},
		{
			"alphaMode" : "OPAQUE",
			"doubleSided" : true,
			"name" : "BlocksGem",
			"pbrMetallicRoughness" : 
			{
				"baseColorFactor" : 
				[
					1,
					0.4,
					1,
					1
				],
				"metallicFactor" : 0,
				"roughnessFactor" : 0.1
			}
		}
	],
	"meshes" : 
	[
		{
			"name" : "mesh_m0-PolyPaper23_-105548",
			"primitives" : 
			[
				{
					"attributes" : 
					{
						"COLOR_0" : 0,
						"NORMAL" : 4,
						"POSITION" : 6
					},
					"indices" : 2,
					"material" : 0,
					"mode" : 4
				}
			]
		},
		{
			"name" : "mesh_m1-PolyPaper20_-105554",
			"primitives" : 
			[
				{
					"attributes" : 
					{
						"COLOR_0" : 1,
						"NORMAL" : 5,
						"POSITION" : 7
					},
					"indices" : 3,
					"material" : 0,
					"mode" : 4
				}
			]
		}
	],
	"nodes" : 
	[
		{
			"matrix" : 
			[
				1,
				0,
				0,
				0,
				0,
				1,
				0,
				0,
				0,
				0,
				1,
				0,
				0,
				0,
				0,
				1
			],
			"mesh" : 0,
			"name" : "node_MeshObject1183647744-PolyPaper23"
		},
		{
			"matrix" : 
			[
				1,
				0,
				0,
				0,
				0,
				1,
				0,
				0,
				0,
				0,
				1,
				0,
				0,
				0,
				0,
				1
			],
			"mesh" : 1,
			"name" : "node_MeshObject1755726848-PolyPaper20"
		}
	],
	"scene" : 0,
	"scenes" : 
	[
		{
			"extras" : {},
			"name" : "defaultScene",
			"nodes" : 
			[
				0,
				1
			]
		}
	]
}